<mxfile host="Electron" agent="Mozilla/5.0 (Windows NT 10.0; Win64; x64) AppleWebKit/537.36 (KHTML, like Gecko) draw.io/27.0.9 Chrome/134.0.6998.205 Electron/35.4.0 Safari/537.36" version="27.0.9">
  <diagram name="페이지-1" id="WGSxOdOskkmz9LU9HtEP">
    <mxGraphModel dx="1286" dy="1282" grid="1" gridSize="10" guides="1" tooltips="1" connect="1" arrows="1" fold="1" page="1" pageScale="1" pageWidth="827" pageHeight="1169" math="0" shadow="0">
      <root>
        <mxCell id="0" />
        <mxCell id="1" parent="0" />
        <mxCell id="5PLPJtpDU1oJyjAWQgFz-2" value="호텔 서비스 프로그램" style="rounded=0;whiteSpace=wrap;html=1;fontSize=18;fontStyle=1" parent="1" vertex="1">
          <mxGeometry x="517.5" y="40" width="235" height="50" as="geometry" />
        </mxCell>
        <mxCell id="5PLPJtpDU1oJyjAWQgFz-3" value="고객" style="text;html=1;align=center;verticalAlign=middle;whiteSpace=wrap;rounded=0;strokeColor=default;" parent="1" vertex="1">
          <mxGeometry x="80" y="140" width="60" height="30" as="geometry" />
        </mxCell>
        <mxCell id="5PLPJtpDU1oJyjAWQgFz-5" value="직원" style="text;html=1;align=center;verticalAlign=middle;whiteSpace=wrap;rounded=0;strokeColor=#007FFF;" parent="1" vertex="1">
          <mxGeometry x="385" y="140" width="50" height="30" as="geometry" />
        </mxCell>
        <mxCell id="5PLPJtpDU1oJyjAWQgFz-6" value="비회원" style="text;html=1;align=center;verticalAlign=middle;whiteSpace=wrap;rounded=0;strokeColor=#FFFF66;" parent="1" vertex="1">
          <mxGeometry x="635" y="140" width="70" height="30" as="geometry" />
        </mxCell>
        <mxCell id="5PLPJtpDU1oJyjAWQgFz-7" value="관리자" style="text;html=1;align=center;verticalAlign=middle;whiteSpace=wrap;rounded=0;strokeColor=#FF0000;" parent="1" vertex="1">
          <mxGeometry x="1045" y="140" width="50" height="30" as="geometry" />
        </mxCell>
        <mxCell id="5PLPJtpDU1oJyjAWQgFz-10" value="인증 서비스(회원가입)" style="text;html=1;align=center;verticalAlign=middle;whiteSpace=wrap;rounded=0;strokeColor=#2D7600;fillColor=#60a917;fontColor=#ffffff;fontStyle=1" parent="1" vertex="1">
          <mxGeometry x="45" y="200" width="130" height="30" as="geometry" />
        </mxCell>
        <mxCell id="5PLPJtpDU1oJyjAWQgFz-13" value="인증 서비스(회원가입)" style="text;html=1;align=center;verticalAlign=middle;whiteSpace=wrap;rounded=0;strokeColor=#2D7600;fillColor=#60a917;fontColor=#ffffff;fontStyle=1" parent="1" vertex="1">
          <mxGeometry x="345" y="200" width="130" height="30" as="geometry" />
        </mxCell>
        <mxCell id="5PLPJtpDU1oJyjAWQgFz-16" value="인증 서비스(회원가입)" style="text;html=1;align=center;verticalAlign=middle;whiteSpace=wrap;rounded=0;strokeColor=#2D7600;fillColor=#60a917;fontColor=#ffffff;fontStyle=1" parent="1" vertex="1">
          <mxGeometry x="605" y="200" width="130" height="30" as="geometry" />
        </mxCell>
        <mxCell id="5PLPJtpDU1oJyjAWQgFz-21" value="인증 서비스(회원가입)" style="text;html=1;align=center;verticalAlign=middle;whiteSpace=wrap;rounded=0;strokeColor=#2D7600;fillColor=#60a917;fontColor=#ffffff;fontStyle=1" parent="1" vertex="1">
          <mxGeometry x="1005" y="200" width="130" height="30" as="geometry" />
        </mxCell>
        <mxCell id="5PLPJtpDU1oJyjAWQgFz-25" value="회원가입 X(Create)&lt;br&gt;나의 정보 조회 가능(Read)&lt;br&gt;나의 정보 수정 가능(Update)&lt;br&gt;나의 정보 삭제 가능(Delete)&lt;br&gt;&lt;br&gt;로그인 &amp;amp; 로그아웃&lt;br&gt;(Process)&lt;br&gt;(사용자 확인 &amp;amp; 로그 기록 및 저장)" style="text;html=1;align=center;verticalAlign=middle;whiteSpace=wrap;rounded=0;strokeColor=default;" parent="1" vertex="1">
          <mxGeometry x="18.75" y="253" width="182.5" height="140" as="geometry" />
        </mxCell>
        <mxCell id="5PLPJtpDU1oJyjAWQgFz-30" value="회원가입 가능(Create)" style="text;html=1;align=center;verticalAlign=middle;whiteSpace=wrap;rounded=0;strokeColor=default;" parent="1" vertex="1">
          <mxGeometry x="587.5" y="269.5" width="165" height="107" as="geometry" />
        </mxCell>
        <mxCell id="5PLPJtpDU1oJyjAWQgFz-31" value="회원가입 X(Create)&lt;br&gt;나의 정보 조회 가능(Read)&lt;br&gt;나의 정보 수정 가능(Update)&lt;br&gt;나의 정보 삭제 가능(Delete)&lt;br&gt;&lt;br&gt;로그인 &amp;amp; 로그아웃&lt;br&gt;(Process)&lt;br&gt;(사용자 확인 &amp;amp; 로그 기록 및 저장)" style="text;html=1;align=center;verticalAlign=middle;whiteSpace=wrap;rounded=0;strokeColor=default;" parent="1" vertex="1">
          <mxGeometry x="318.75" y="253" width="182.5" height="140" as="geometry" />
        </mxCell>
        <mxCell id="5PLPJtpDU1oJyjAWQgFz-36" value="회원가입 X(Create)&lt;br&gt;나의 정보 조회 O (Read)&lt;br&gt;나의 정보 수정 O (Update)&lt;br&gt;나의 정보 삭제 O (Delete)&lt;br&gt;&lt;br&gt;로그인 &amp;amp; 로그아웃&lt;br&gt;(Process)&lt;br&gt;(사용자 확인 &amp;amp; 로그 기록 및 저장)" style="text;html=1;align=center;verticalAlign=middle;whiteSpace=wrap;rounded=0;strokeColor=default;" parent="1" vertex="1">
          <mxGeometry x="978.75" y="253" width="182.5" height="140" as="geometry" />
        </mxCell>
        <mxCell id="NMuvgu8r61_GWEEX3Hoa-2" style="edgeStyle=orthogonalEdgeStyle;rounded=0;orthogonalLoop=1;jettySize=auto;html=1;exitX=0.5;exitY=1;exitDx=0;exitDy=0;entryX=0.5;entryY=0;entryDx=0;entryDy=0;" edge="1" parent="1" source="NMuvgu8r61_GWEEX3Hoa-3">
          <mxGeometry relative="1" as="geometry">
            <mxPoint x="675" y="639.9999999999998" as="targetPoint" />
          </mxGeometry>
        </mxCell>
        <mxCell id="NMuvgu8r61_GWEEX3Hoa-3" value="객실 예약 서비스" style="text;html=1;align=center;verticalAlign=middle;whiteSpace=wrap;rounded=0;strokeColor=#3700CC;fillColor=#6a00ff;fontColor=#ffffff;fontStyle=1" vertex="1" parent="1">
          <mxGeometry x="605" y="560" width="140" height="40" as="geometry" />
        </mxCell>
        <mxCell id="NMuvgu8r61_GWEEX3Hoa-5" style="edgeStyle=orthogonalEdgeStyle;rounded=0;orthogonalLoop=1;jettySize=auto;html=1;exitX=0.5;exitY=1;exitDx=0;exitDy=0;entryX=0.5;entryY=0;entryDx=0;entryDy=0;" edge="1" parent="1" source="NMuvgu8r61_GWEEX3Hoa-6" target="NMuvgu8r61_GWEEX3Hoa-10">
          <mxGeometry relative="1" as="geometry" />
        </mxCell>
        <mxCell id="NMuvgu8r61_GWEEX3Hoa-6" value="&lt;div style=&quot;text-align: center;&quot;&gt;&lt;span style=&quot;background-color: transparent; color: light-dark(rgb(0, 0, 0), rgb(255, 255, 255));&quot;&gt;- 비회원 -&lt;/span&gt;&lt;/div&gt;객실예약 X (Create)&lt;br&gt;객실조회 O (Read) - 프론트에서 예약 가능&lt;br&gt;객실변경 X (Update)&lt;br&gt;객실취소 X (Delete)" style="text;html=1;align=left;verticalAlign=middle;whiteSpace=wrap;rounded=0;strokeColor=default;" vertex="1" parent="1">
          <mxGeometry x="611.25" y="640" width="258.75" height="100" as="geometry" />
        </mxCell>
        <mxCell id="NMuvgu8r61_GWEEX3Hoa-7" style="edgeStyle=orthogonalEdgeStyle;rounded=0;orthogonalLoop=1;jettySize=auto;html=1;exitX=0.5;exitY=1;exitDx=0;exitDy=0;entryX=0.5;entryY=0;entryDx=0;entryDy=0;" edge="1" parent="1" source="NMuvgu8r61_GWEEX3Hoa-8" target="NMuvgu8r61_GWEEX3Hoa-3">
          <mxGeometry relative="1" as="geometry" />
        </mxCell>
        <mxCell id="NMuvgu8r61_GWEEX3Hoa-8" value="서비스" style="text;html=1;align=center;verticalAlign=middle;whiteSpace=wrap;rounded=0;strokeColor=#BD7000;fillColor=#f0a30a;fontColor=#FFFFFF;fontStyle=1;fontSize=17;" vertex="1" parent="1">
          <mxGeometry x="605" y="440" width="140" height="40" as="geometry" />
        </mxCell>
        <mxCell id="NMuvgu8r61_GWEEX3Hoa-9" style="edgeStyle=orthogonalEdgeStyle;rounded=0;orthogonalLoop=1;jettySize=auto;html=1;exitX=0.5;exitY=1;exitDx=0;exitDy=0;entryX=0.187;entryY=0.007;entryDx=0;entryDy=0;entryPerimeter=0;" edge="1" parent="1" source="NMuvgu8r61_GWEEX3Hoa-10" target="NMuvgu8r61_GWEEX3Hoa-12">
          <mxGeometry relative="1" as="geometry">
            <mxPoint x="680" y="860" as="targetPoint" />
            <Array as="points">
              <mxPoint x="673" y="861" />
            </Array>
          </mxGeometry>
        </mxCell>
        <mxCell id="NMuvgu8r61_GWEEX3Hoa-10" value="주차 등록 서비스" style="text;html=1;align=center;verticalAlign=middle;whiteSpace=wrap;rounded=0;strokeColor=#3700CC;fillColor=#6a00ff;fontColor=#ffffff;fontStyle=1" vertex="1" parent="1">
          <mxGeometry x="603" y="780" width="140" height="40" as="geometry" />
        </mxCell>
        <mxCell id="NMuvgu8r61_GWEEX3Hoa-11" style="edgeStyle=orthogonalEdgeStyle;rounded=0;orthogonalLoop=1;jettySize=auto;html=1;exitX=0.5;exitY=1;exitDx=0;exitDy=0;entryX=0.5;entryY=0;entryDx=0;entryDy=0;" edge="1" parent="1" source="NMuvgu8r61_GWEEX3Hoa-12" target="NMuvgu8r61_GWEEX3Hoa-14">
          <mxGeometry relative="1" as="geometry" />
        </mxCell>
        <mxCell id="NMuvgu8r61_GWEEX3Hoa-12" value="&lt;div style=&quot;text-align: center;&quot;&gt;&lt;span style=&quot;background-color: transparent; color: light-dark(rgb(0, 0, 0), rgb(255, 255, 255));&quot;&gt;- 비회원 -&lt;/span&gt;&lt;/div&gt;주차등록 O (Create) - 주차관리소에서 (차량번호)등록 가능&lt;br&gt;주차조회 O (Read) - 주차관리소에서 (차량번호)조회 가능&lt;br&gt;주차변경 X (Update)&lt;br&gt;주차취소 X (Delete)" style="text;html=1;align=left;verticalAlign=middle;whiteSpace=wrap;rounded=0;strokeColor=default;" vertex="1" parent="1">
          <mxGeometry x="615" y="860" width="315" height="100" as="geometry" />
        </mxCell>
        <mxCell id="NMuvgu8r61_GWEEX3Hoa-13" style="edgeStyle=orthogonalEdgeStyle;rounded=0;orthogonalLoop=1;jettySize=auto;html=1;exitX=0.5;exitY=1;exitDx=0;exitDy=0;entryX=0.5;entryY=0;entryDx=0;entryDy=0;" edge="1" parent="1" source="NMuvgu8r61_GWEEX3Hoa-14">
          <mxGeometry relative="1" as="geometry">
            <mxPoint x="675" y="1079.9999999999998" as="targetPoint" />
          </mxGeometry>
        </mxCell>
        <mxCell id="NMuvgu8r61_GWEEX3Hoa-14" value="식사 예약 서비스" style="text;html=1;align=center;verticalAlign=middle;whiteSpace=wrap;rounded=0;strokeColor=#3700CC;fillColor=#6a00ff;fontColor=#ffffff;fontStyle=1" vertex="1" parent="1">
          <mxGeometry x="605" y="1000" width="140" height="40" as="geometry" />
        </mxCell>
        <mxCell id="NMuvgu8r61_GWEEX3Hoa-16" value="&lt;div style=&quot;&quot;&gt;&lt;div style=&quot;&quot;&gt;&lt;div style=&quot;text-align: center;&quot;&gt;&lt;span style=&quot;background-color: transparent; color: light-dark(rgb(0, 0, 0), rgb(255, 255, 255));&quot;&gt;- 비회원 -&lt;/span&gt;&lt;/div&gt;&lt;span style=&quot;&quot;&gt;식사 예약 등록 X (Create)&lt;/span&gt;&lt;br style=&quot;&quot;&gt;&lt;span style=&quot;&quot;&gt;식사 예약 조회 X (Read)&lt;/span&gt;&lt;br style=&quot;&quot;&gt;&lt;span style=&quot;&quot;&gt;식사 예약 변경 X (Update)&lt;/span&gt;&lt;br style=&quot;&quot;&gt;&lt;span style=&quot;&quot;&gt;식사 예약 취소 X (Delete)&lt;/span&gt;&lt;/div&gt;&lt;/div&gt;" style="text;html=1;align=left;verticalAlign=middle;whiteSpace=wrap;rounded=0;strokeColor=default;" vertex="1" parent="1">
          <mxGeometry x="590" y="1080" width="170" height="100" as="geometry" />
        </mxCell>
        <mxCell id="NMuvgu8r61_GWEEX3Hoa-34" value="&lt;div style=&quot;text-align: center;&quot;&gt;&lt;span style=&quot;background-color: transparent; color: light-dark(rgb(0, 0, 0), rgb(255, 255, 255));&quot;&gt;- 직원 -&lt;/span&gt;&lt;/div&gt;식사 예약 등록 O (Create)&lt;br&gt;식사 예약 조회 O (Read)&lt;br&gt;식사 예약 변경 O (Update)&lt;br&gt;식사 예약 취소 O (Delete)" style="text;html=1;align=left;verticalAlign=middle;whiteSpace=wrap;rounded=0;strokeColor=default;" vertex="1" parent="1">
          <mxGeometry x="344" y="1080" width="140" height="100" as="geometry" />
        </mxCell>
        <mxCell id="NMuvgu8r61_GWEEX3Hoa-70" style="edgeStyle=orthogonalEdgeStyle;rounded=0;orthogonalLoop=1;jettySize=auto;html=1;exitX=0.5;exitY=1;exitDx=0;exitDy=0;entryX=0.5;entryY=0;entryDx=0;entryDy=0;" edge="1" parent="1" source="NMuvgu8r61_GWEEX3Hoa-35" target="NMuvgu8r61_GWEEX3Hoa-36">
          <mxGeometry relative="1" as="geometry" />
        </mxCell>
        <mxCell id="NMuvgu8r61_GWEEX3Hoa-35" value="&lt;div style=&quot;text-align: center;&quot;&gt;&lt;span style=&quot;background-color: transparent; color: light-dark(rgb(0, 0, 0), rgb(255, 255, 255));&quot;&gt;- 직원 -&lt;/span&gt;&lt;/div&gt;주차등록 O (Create)&lt;br&gt;주차조회 O (Read)&lt;br&gt;주차변경 O (Update)&lt;br&gt;주차취소 O (Delete)" style="text;html=1;align=left;verticalAlign=middle;whiteSpace=wrap;rounded=0;strokeColor=default;" vertex="1" parent="1">
          <mxGeometry x="341" y="860" width="146" height="100" as="geometry" />
        </mxCell>
        <mxCell id="NMuvgu8r61_GWEEX3Hoa-71" style="edgeStyle=orthogonalEdgeStyle;rounded=0;orthogonalLoop=1;jettySize=auto;html=1;exitX=0.5;exitY=1;exitDx=0;exitDy=0;entryX=0.5;entryY=0;entryDx=0;entryDy=0;" edge="1" parent="1" source="NMuvgu8r61_GWEEX3Hoa-36" target="NMuvgu8r61_GWEEX3Hoa-34">
          <mxGeometry relative="1" as="geometry" />
        </mxCell>
        <mxCell id="NMuvgu8r61_GWEEX3Hoa-36" value="&lt;font&gt;식사 예약&amp;nbsp;&lt;span style=&quot;background-color: transparent;&quot;&gt;서비스&lt;/span&gt;&lt;/font&gt;" style="text;html=1;align=center;verticalAlign=middle;whiteSpace=wrap;rounded=0;strokeColor=#3700CC;fillColor=#6a00ff;fontColor=#ffffff;fontStyle=1" vertex="1" parent="1">
          <mxGeometry x="344" y="1000" width="140" height="40" as="geometry" />
        </mxCell>
        <mxCell id="NMuvgu8r61_GWEEX3Hoa-69" style="edgeStyle=orthogonalEdgeStyle;rounded=0;orthogonalLoop=1;jettySize=auto;html=1;exitX=0.5;exitY=1;exitDx=0;exitDy=0;entryX=0.5;entryY=0;entryDx=0;entryDy=0;" edge="1" parent="1" source="NMuvgu8r61_GWEEX3Hoa-37" target="NMuvgu8r61_GWEEX3Hoa-35">
          <mxGeometry relative="1" as="geometry" />
        </mxCell>
        <mxCell id="NMuvgu8r61_GWEEX3Hoa-37" value="주차 등록 서비스" style="text;html=1;align=center;verticalAlign=middle;whiteSpace=wrap;rounded=0;strokeColor=#3700CC;fillColor=#6a00ff;fontColor=#ffffff;fontStyle=1" vertex="1" parent="1">
          <mxGeometry x="346" y="780" width="135" height="40" as="geometry" />
        </mxCell>
        <mxCell id="NMuvgu8r61_GWEEX3Hoa-67" style="edgeStyle=orthogonalEdgeStyle;rounded=0;orthogonalLoop=1;jettySize=auto;html=1;exitX=0.5;exitY=1;exitDx=0;exitDy=0;entryX=0.5;entryY=0;entryDx=0;entryDy=0;" edge="1" parent="1" source="NMuvgu8r61_GWEEX3Hoa-38" target="NMuvgu8r61_GWEEX3Hoa-64">
          <mxGeometry relative="1" as="geometry" />
        </mxCell>
        <mxCell id="NMuvgu8r61_GWEEX3Hoa-38" value="객실 예약 서비스" style="text;html=1;align=center;verticalAlign=middle;whiteSpace=wrap;rounded=0;strokeColor=#3700CC;fillColor=#6a00ff;fontColor=#ffffff;fontStyle=1" vertex="1" parent="1">
          <mxGeometry x="344" y="560" width="140" height="40" as="geometry" />
        </mxCell>
        <mxCell id="NMuvgu8r61_GWEEX3Hoa-39" value="객실 예약 서비스" style="text;html=1;align=center;verticalAlign=middle;whiteSpace=wrap;rounded=0;strokeColor=#3700CC;fillColor=#6a00ff;fontColor=#ffffff;fontStyle=1" vertex="1" parent="1">
          <mxGeometry x="1000" y="560" width="140" height="40" as="geometry" />
        </mxCell>
        <mxCell id="NMuvgu8r61_GWEEX3Hoa-76" style="edgeStyle=orthogonalEdgeStyle;rounded=0;orthogonalLoop=1;jettySize=auto;html=1;exitX=0.5;exitY=1;exitDx=0;exitDy=0;entryX=0.5;entryY=0;entryDx=0;entryDy=0;" edge="1" parent="1" source="NMuvgu8r61_GWEEX3Hoa-41" target="NMuvgu8r61_GWEEX3Hoa-43">
          <mxGeometry relative="1" as="geometry" />
        </mxCell>
        <mxCell id="NMuvgu8r61_GWEEX3Hoa-41" value="&lt;div style=&quot;text-align: center;&quot;&gt;&lt;span style=&quot;background-color: transparent; color: light-dark(rgb(0, 0, 0), rgb(255, 255, 255));&quot;&gt;- 관리자-&lt;/span&gt;&lt;/div&gt;객실 예약 등록 O (Create)&lt;br&gt;객실 예약 조회 O (Read)&lt;br&gt;객실 예약 변경 O (Update)&lt;br&gt;객실 예약 취소 O(Delete)" style="text;html=1;align=left;verticalAlign=middle;whiteSpace=wrap;rounded=0;strokeColor=default;" vertex="1" parent="1">
          <mxGeometry x="990" y="640" width="160" height="100" as="geometry" />
        </mxCell>
        <mxCell id="NMuvgu8r61_GWEEX3Hoa-75" style="edgeStyle=orthogonalEdgeStyle;rounded=0;orthogonalLoop=1;jettySize=auto;html=1;exitX=0.5;exitY=1;exitDx=0;exitDy=0;entryX=0.5;entryY=0;entryDx=0;entryDy=0;" edge="1" parent="1" source="NMuvgu8r61_GWEEX3Hoa-43" target="NMuvgu8r61_GWEEX3Hoa-45">
          <mxGeometry relative="1" as="geometry" />
        </mxCell>
        <mxCell id="NMuvgu8r61_GWEEX3Hoa-43" value="주차 등록 서비스" style="text;html=1;align=center;verticalAlign=middle;whiteSpace=wrap;rounded=0;strokeColor=#3700CC;fillColor=#6a00ff;fontColor=#ffffff;fontStyle=1" vertex="1" parent="1">
          <mxGeometry x="1000" y="780" width="140" height="40" as="geometry" />
        </mxCell>
        <mxCell id="NMuvgu8r61_GWEEX3Hoa-44" style="edgeStyle=orthogonalEdgeStyle;rounded=0;orthogonalLoop=1;jettySize=auto;html=1;exitX=0.5;exitY=1;exitDx=0;exitDy=0;entryX=0.5;entryY=0;entryDx=0;entryDy=0;" edge="1" parent="1" source="NMuvgu8r61_GWEEX3Hoa-45" target="NMuvgu8r61_GWEEX3Hoa-47">
          <mxGeometry relative="1" as="geometry" />
        </mxCell>
        <mxCell id="NMuvgu8r61_GWEEX3Hoa-45" value="&lt;div style=&quot;text-align: center;&quot;&gt;&lt;span style=&quot;background-color: transparent; color: light-dark(rgb(0, 0, 0), rgb(255, 255, 255));&quot;&gt;- 관리자 -&lt;/span&gt;&lt;/div&gt;주차등록 O (Create)&lt;br&gt;주차조회 O (Read)&lt;br&gt;주차변경 O (Update)&lt;br&gt;주차취소 O (Delete)" style="text;html=1;align=left;verticalAlign=middle;whiteSpace=wrap;rounded=0;strokeColor=default;" vertex="1" parent="1">
          <mxGeometry x="1000" y="860" width="140" height="100" as="geometry" />
        </mxCell>
        <mxCell id="NMuvgu8r61_GWEEX3Hoa-46" style="edgeStyle=orthogonalEdgeStyle;rounded=0;orthogonalLoop=1;jettySize=auto;html=1;exitX=0.5;exitY=1;exitDx=0;exitDy=0;entryX=0.5;entryY=0;entryDx=0;entryDy=0;" edge="1" parent="1" source="NMuvgu8r61_GWEEX3Hoa-47">
          <mxGeometry relative="1" as="geometry">
            <mxPoint x="1070" y="1079.9999999999998" as="targetPoint" />
          </mxGeometry>
        </mxCell>
        <mxCell id="NMuvgu8r61_GWEEX3Hoa-47" value="식사 예약 서비스" style="text;html=1;align=center;verticalAlign=middle;whiteSpace=wrap;rounded=0;strokeColor=#3700CC;fillColor=#6a00ff;fontColor=#ffffff;fontStyle=1" vertex="1" parent="1">
          <mxGeometry x="1000" y="1000" width="140" height="40" as="geometry" />
        </mxCell>
        <mxCell id="NMuvgu8r61_GWEEX3Hoa-48" value="&lt;div style=&quot;text-align: center;&quot;&gt;&lt;span style=&quot;background-color: transparent; color: light-dark(rgb(0, 0, 0), rgb(255, 255, 255));&quot;&gt;- 관리자-&lt;/span&gt;&lt;/div&gt;&lt;div style=&quot;text-align: center;&quot;&gt;식사 예약 등록 O&amp;nbsp;&lt;span style=&quot;background-color: transparent; color: light-dark(rgb(0, 0, 0), rgb(255, 255, 255)); text-align: left;&quot;&gt;&amp;nbsp;&lt;/span&gt;&lt;span style=&quot;background-color: transparent; color: light-dark(rgb(0, 0, 0), rgb(255, 255, 255)); text-align: left;&quot;&gt;(Create)&lt;/span&gt;&lt;/div&gt;식사 예약 조회 O (Read)&lt;div&gt;식사 예약 변경 O (Update)&lt;br&gt;식사 예약 취소 O (Delete)&lt;/div&gt;" style="text;html=1;align=left;verticalAlign=middle;whiteSpace=wrap;rounded=0;strokeColor=default;" vertex="1" parent="1">
          <mxGeometry x="990" y="1080" width="160" height="100" as="geometry" />
        </mxCell>
        <mxCell id="NMuvgu8r61_GWEEX3Hoa-49" style="edgeStyle=orthogonalEdgeStyle;rounded=0;orthogonalLoop=1;jettySize=auto;html=1;exitX=0.5;exitY=1;exitDx=0;exitDy=0;entryX=0.5;entryY=0;entryDx=0;entryDy=0;" edge="1" parent="1" source="NMuvgu8r61_GWEEX3Hoa-50">
          <mxGeometry relative="1" as="geometry">
            <mxPoint x="110" y="639.9999999999998" as="targetPoint" />
          </mxGeometry>
        </mxCell>
        <mxCell id="NMuvgu8r61_GWEEX3Hoa-50" value="객실 예약 서비스" style="text;html=1;align=center;verticalAlign=middle;whiteSpace=wrap;rounded=0;strokeColor=#3700CC;fillColor=#6a00ff;fontColor=#ffffff;fontStyle=1" vertex="1" parent="1">
          <mxGeometry x="40" y="560" width="140" height="40" as="geometry" />
        </mxCell>
        <mxCell id="NMuvgu8r61_GWEEX3Hoa-51" style="edgeStyle=orthogonalEdgeStyle;rounded=0;orthogonalLoop=1;jettySize=auto;html=1;exitX=0.5;exitY=1;exitDx=0;exitDy=0;entryX=0.5;entryY=0;entryDx=0;entryDy=0;" edge="1" parent="1" source="NMuvgu8r61_GWEEX3Hoa-52" target="NMuvgu8r61_GWEEX3Hoa-56">
          <mxGeometry relative="1" as="geometry">
            <Array as="points">
              <mxPoint x="110" y="740" />
            </Array>
          </mxGeometry>
        </mxCell>
        <mxCell id="NMuvgu8r61_GWEEX3Hoa-52" value="&lt;div style=&quot;&quot;&gt;&lt;div style=&quot;text-align: center;&quot;&gt;&lt;span style=&quot;background-color: transparent; color: light-dark(rgb(0, 0, 0), rgb(255, 255, 255));&quot;&gt;- 회원 -&lt;/span&gt;&lt;/div&gt;&lt;span style=&quot;&quot;&gt;회원은 객실등록 O (Create)&lt;/span&gt;&lt;div style=&quot;&quot;&gt;회원은 객실조회 O (Read)&lt;br&gt;회원은 객실수정 X (Update)&lt;br&gt;회원은 객실삭제 X (Delete)&lt;/div&gt;&lt;/div&gt;" style="text;html=1;align=left;verticalAlign=middle;whiteSpace=wrap;rounded=0;strokeColor=default;" vertex="1" parent="1">
          <mxGeometry x="30" y="640" width="160" height="100" as="geometry" />
        </mxCell>
        <mxCell id="NMuvgu8r61_GWEEX3Hoa-53" style="edgeStyle=orthogonalEdgeStyle;rounded=0;orthogonalLoop=1;jettySize=auto;html=1;exitX=0.5;exitY=1;exitDx=0;exitDy=0;entryX=0.5;entryY=0;entryDx=0;entryDy=0;" edge="1" parent="1" source="NMuvgu8r61_GWEEX3Hoa-54" target="NMuvgu8r61_GWEEX3Hoa-50">
          <mxGeometry relative="1" as="geometry" />
        </mxCell>
        <mxCell id="NMuvgu8r61_GWEEX3Hoa-54" value="서비스" style="text;html=1;align=center;verticalAlign=middle;whiteSpace=wrap;rounded=0;strokeColor=#BD7000;fillColor=#f0a30a;fontColor=#FFFFFF;fontStyle=1;fontSize=17;" vertex="1" parent="1">
          <mxGeometry x="40" y="440" width="140" height="40" as="geometry" />
        </mxCell>
        <mxCell id="NMuvgu8r61_GWEEX3Hoa-55" style="edgeStyle=orthogonalEdgeStyle;rounded=0;orthogonalLoop=1;jettySize=auto;html=1;exitX=0.5;exitY=1;exitDx=0;exitDy=0;entryX=0.5;entryY=0;entryDx=0;entryDy=0;" edge="1" parent="1" source="NMuvgu8r61_GWEEX3Hoa-56">
          <mxGeometry relative="1" as="geometry">
            <mxPoint x="110" y="859.9999999999998" as="targetPoint" />
          </mxGeometry>
        </mxCell>
        <mxCell id="NMuvgu8r61_GWEEX3Hoa-56" value="주차 예약 서비스" style="text;html=1;align=center;verticalAlign=middle;whiteSpace=wrap;rounded=0;strokeColor=#3700CC;fillColor=#6a00ff;fontColor=#ffffff;fontStyle=1" vertex="1" parent="1">
          <mxGeometry x="40" y="780" width="140" height="40" as="geometry" />
        </mxCell>
        <mxCell id="NMuvgu8r61_GWEEX3Hoa-57" style="edgeStyle=orthogonalEdgeStyle;rounded=0;orthogonalLoop=1;jettySize=auto;html=1;exitX=0.5;exitY=1;exitDx=0;exitDy=0;entryX=0.5;entryY=0;entryDx=0;entryDy=0;" edge="1" parent="1" source="NMuvgu8r61_GWEEX3Hoa-58" target="NMuvgu8r61_GWEEX3Hoa-60">
          <mxGeometry relative="1" as="geometry" />
        </mxCell>
        <mxCell id="NMuvgu8r61_GWEEX3Hoa-58" value="&lt;div style=&quot;&quot;&gt;&lt;div style=&quot;text-align: center;&quot;&gt;&lt;span style=&quot;background-color: transparent; color: light-dark(rgb(0, 0, 0), rgb(255, 255, 255));&quot;&gt;- 회원 -&lt;/span&gt;&lt;/div&gt;&lt;span style=&quot;&quot;&gt;주차 예약 서비스 등록 O (Create)&lt;/span&gt;&lt;br style=&quot;&quot;&gt;&lt;span style=&quot;&quot;&gt;주차 예약&amp;nbsp;서비스&amp;nbsp;조회 O (Read)&lt;/span&gt;&lt;br style=&quot;&quot;&gt;&lt;span style=&quot;&quot;&gt;주차 예약&amp;nbsp;서비스&amp;nbsp;수정 X (Update)&lt;/span&gt;&lt;br style=&quot;&quot;&gt;&lt;span style=&quot;&quot;&gt;주차 예약&amp;nbsp;서비스&amp;nbsp;삭제 X (Delete)&lt;/span&gt;&lt;/div&gt;" style="text;html=1;align=left;verticalAlign=middle;whiteSpace=wrap;rounded=0;strokeColor=default;" vertex="1" parent="1">
          <mxGeometry x="20" y="860" width="180" height="100" as="geometry" />
        </mxCell>
        <mxCell id="NMuvgu8r61_GWEEX3Hoa-59" style="edgeStyle=orthogonalEdgeStyle;rounded=0;orthogonalLoop=1;jettySize=auto;html=1;exitX=0.5;exitY=1;exitDx=0;exitDy=0;entryX=0.5;entryY=0;entryDx=0;entryDy=0;" edge="1" parent="1" source="NMuvgu8r61_GWEEX3Hoa-60">
          <mxGeometry relative="1" as="geometry">
            <mxPoint x="110" y="1079.9999999999998" as="targetPoint" />
          </mxGeometry>
        </mxCell>
        <mxCell id="NMuvgu8r61_GWEEX3Hoa-60" value="식사 예약 서비스" style="text;html=1;align=center;verticalAlign=middle;whiteSpace=wrap;rounded=0;strokeColor=#3700CC;fillColor=#6a00ff;fontColor=#ffffff;fontStyle=1" vertex="1" parent="1">
          <mxGeometry x="40" y="1000" width="140" height="40" as="geometry" />
        </mxCell>
        <mxCell id="NMuvgu8r61_GWEEX3Hoa-61" value="&lt;div style=&quot;&quot;&gt;&lt;div&gt;&lt;div style=&quot;text-align: center;&quot;&gt;&lt;span style=&quot;background-color: transparent; color: light-dark(rgb(0, 0, 0), rgb(255, 255, 255));&quot;&gt;- 회원 -&lt;/span&gt;&lt;/div&gt;식사&amp;nbsp;&lt;span style=&quot;background-color: transparent; color: light-dark(rgb(0, 0, 0), rgb(255, 255, 255));&quot;&gt;예약&lt;/span&gt;&lt;span style=&quot;background-color: transparent; color: light-dark(rgb(0, 0, 0), rgb(255, 255, 255));&quot;&gt;&amp;nbsp;&lt;/span&gt;&lt;span style=&quot;background-color: transparent; color: light-dark(rgb(0, 0, 0), rgb(255, 255, 255));&quot;&gt;서비스 등록 O (Create)&lt;/span&gt;&lt;/div&gt;&lt;div&gt;식사&amp;nbsp;&lt;span style=&quot;background-color: transparent; color: light-dark(rgb(0, 0, 0), rgb(255, 255, 255));&quot;&gt;예약&lt;/span&gt;&lt;span style=&quot;background-color: transparent; color: light-dark(rgb(0, 0, 0), rgb(255, 255, 255));&quot;&gt;&amp;nbsp;&lt;/span&gt;&lt;span style=&quot;background-color: transparent; color: light-dark(rgb(0, 0, 0), rgb(255, 255, 255));&quot;&gt;서비스&amp;nbsp;&lt;/span&gt;&lt;span style=&quot;background-color: transparent; color: light-dark(rgb(0, 0, 0), rgb(255, 255, 255));&quot;&gt;조회 O (Read)&lt;/span&gt;&lt;/div&gt;&lt;div&gt;식사&amp;nbsp;&lt;span style=&quot;background-color: transparent; color: light-dark(rgb(0, 0, 0), rgb(255, 255, 255));&quot;&gt;예약&lt;/span&gt;&lt;span style=&quot;background-color: transparent; color: light-dark(rgb(0, 0, 0), rgb(255, 255, 255));&quot;&gt;&amp;nbsp;&lt;/span&gt;&lt;span style=&quot;background-color: transparent; color: light-dark(rgb(0, 0, 0), rgb(255, 255, 255));&quot;&gt;서비스&amp;nbsp;&lt;/span&gt;&lt;span style=&quot;background-color: transparent; color: light-dark(rgb(0, 0, 0), rgb(255, 255, 255));&quot;&gt;수정 X (Update)&lt;/span&gt;&lt;/div&gt;&lt;div&gt;식사&amp;nbsp;&lt;span style=&quot;background-color: transparent; color: light-dark(rgb(0, 0, 0), rgb(255, 255, 255));&quot;&gt;예약&lt;/span&gt;&lt;span style=&quot;background-color: transparent; color: light-dark(rgb(0, 0, 0), rgb(255, 255, 255));&quot;&gt;&amp;nbsp;&lt;/span&gt;&lt;span style=&quot;background-color: transparent; color: light-dark(rgb(0, 0, 0), rgb(255, 255, 255));&quot;&gt;서비스&amp;nbsp;&lt;/span&gt;&lt;span style=&quot;background-color: transparent; color: light-dark(rgb(0, 0, 0), rgb(255, 255, 255));&quot;&gt;삭제 X (Delete)&lt;/span&gt;&lt;/div&gt;&lt;/div&gt;" style="text;html=1;align=left;verticalAlign=middle;whiteSpace=wrap;rounded=0;strokeColor=default;" vertex="1" parent="1">
          <mxGeometry x="20" y="1080" width="180" height="100" as="geometry" />
        </mxCell>
        <mxCell id="NMuvgu8r61_GWEEX3Hoa-68" style="edgeStyle=orthogonalEdgeStyle;rounded=0;orthogonalLoop=1;jettySize=auto;html=1;exitX=0.5;exitY=1;exitDx=0;exitDy=0;entryX=0.5;entryY=0;entryDx=0;entryDy=0;" edge="1" parent="1" source="NMuvgu8r61_GWEEX3Hoa-64" target="NMuvgu8r61_GWEEX3Hoa-37">
          <mxGeometry relative="1" as="geometry" />
        </mxCell>
        <mxCell id="NMuvgu8r61_GWEEX3Hoa-64" value="&lt;div style=&quot;&quot;&gt;&lt;div style=&quot;text-align: center;&quot;&gt;&lt;span style=&quot;text-wrap-mode: nowrap;&quot;&gt;-직원-&lt;/span&gt;&lt;div style=&quot;text-wrap-mode: nowrap;&quot;&gt;객실등록O(Create)&lt;/div&gt;&lt;div style=&quot;text-wrap-mode: nowrap;&quot;&gt;객실조회O(Read)&lt;/div&gt;&lt;div style=&quot;text-wrap-mode: nowrap;&quot;&gt;객실변경O(Update)&lt;/div&gt;&lt;div style=&quot;text-wrap-mode: nowrap;&quot;&gt;객실취소O(Delete)&lt;/div&gt;&lt;/div&gt;&lt;/div&gt;" style="text;html=1;align=left;verticalAlign=middle;whiteSpace=wrap;rounded=0;strokeColor=default;" vertex="1" parent="1">
          <mxGeometry x="351.5" y="640" width="125" height="100" as="geometry" />
        </mxCell>
        <mxCell id="NMuvgu8r61_GWEEX3Hoa-65" style="edgeStyle=orthogonalEdgeStyle;rounded=0;orthogonalLoop=1;jettySize=auto;html=1;exitX=0.5;exitY=1;exitDx=0;exitDy=0;entryX=0.5;entryY=0;entryDx=0;entryDy=0;" edge="1" parent="1" source="NMuvgu8r61_GWEEX3Hoa-66">
          <mxGeometry relative="1" as="geometry">
            <mxPoint x="414" y="560" as="targetPoint" />
          </mxGeometry>
        </mxCell>
        <mxCell id="NMuvgu8r61_GWEEX3Hoa-66" value="서비스" style="text;html=1;align=center;verticalAlign=middle;whiteSpace=wrap;rounded=0;strokeColor=#BD7000;fillColor=#f0a30a;fontColor=#FFFFFF;fontStyle=1;fontSize=17;" vertex="1" parent="1">
          <mxGeometry x="344" y="440" width="140" height="40" as="geometry" />
        </mxCell>
        <mxCell id="NMuvgu8r61_GWEEX3Hoa-73" style="edgeStyle=orthogonalEdgeStyle;rounded=0;orthogonalLoop=1;jettySize=auto;html=1;exitX=0.5;exitY=1;exitDx=0;exitDy=0;entryX=0.5;entryY=0;entryDx=0;entryDy=0;" edge="1" parent="1" source="NMuvgu8r61_GWEEX3Hoa-72" target="NMuvgu8r61_GWEEX3Hoa-39">
          <mxGeometry relative="1" as="geometry" />
        </mxCell>
        <mxCell id="NMuvgu8r61_GWEEX3Hoa-72" value="서비스" style="text;html=1;align=center;verticalAlign=middle;whiteSpace=wrap;rounded=0;strokeColor=#BD7000;fillColor=#f0a30a;fontColor=#FFFFFF;fontStyle=1;fontSize=17;" vertex="1" parent="1">
          <mxGeometry x="1000" y="440" width="140" height="40" as="geometry" />
        </mxCell>
        <mxCell id="NMuvgu8r61_GWEEX3Hoa-74" style="edgeStyle=orthogonalEdgeStyle;rounded=0;orthogonalLoop=1;jettySize=auto;html=1;exitX=0.5;exitY=1;exitDx=0;exitDy=0;entryX=0.5;entryY=0;entryDx=0;entryDy=0;" edge="1" parent="1" source="NMuvgu8r61_GWEEX3Hoa-39" target="NMuvgu8r61_GWEEX3Hoa-41">
          <mxGeometry relative="1" as="geometry" />
        </mxCell>
      </root>
    </mxGraphModel>
  </diagram>
</mxfile>
